<?xml version="1.0" standalone="no"?>
<!DOCTYPE svg PUBLIC "-//W3C//DTD SVG 20010904//EN"
 "http://www.w3.org/TR/2001/REC-SVG-20010904/DTD/svg10.dtd">
<svg version="1.0" xmlns="http://www.w3.org/2000/svg"
 width="1280.000000pt" height="882.000000pt" viewBox="0 0 1280.000000 882.000000"
 preserveAspectRatio="xMidYMid meet">
<g transform="translate(0.000000,882.000000) scale(0.100000,-0.100000)"
fill="#000000" stroke="none">
<path d="M7425 8786 c-85 -118 -381 -504 -442 -576 -125 -149 -241 -253 -330
-297 -75 -37 -80 -38 -187 -38 -104 0 -115 2 -176 31 -110 53 -186 134 -339
362 -35 52 -64 92 -66 90 -5 -5 -37 -154 -71 -333 -29 -156 -70 -279 -115
-350 -56 -88 -150 -105 -255 -45 -112 63 -294 265 -409 451 -65 107 -63 104
-70 98 -2 -3 -20 -81 -40 -174 -65 -314 -122 -461 -215 -556 -84 -86 -102 -92
-261 -97 -153 -5 -284 9 -374 40 -76 25 -216 93 -420 203 -214 116 -286 147
-302 132 -15 -15 9 -140 55 -292 43 -140 55 -222 50 -340 -6 -134 -34 -190
-126 -251 -110 -73 -134 -77 -450 -71 -250 5 -293 8 -442 35 -334 61 -472 84
-477 79 -5 -6 37 -121 64 -173 9 -17 72 -107 141 -200 180 -244 195 -284 146
-382 -67 -134 -240 -232 -501 -282 -173 -33 -770 -110 -978 -125 -144 -11
-175 -16 -175 -31 0 -7 17 -22 37 -33 51 -26 97 -76 90 -95 -4 -9 -18 -16 -34
-16 -24 0 -25 -2 -13 -14 8 -7 121 -78 250 -156 349 -212 412 -257 446 -322
24 -46 18 -125 -16 -197 -40 -84 -162 -206 -289 -289 -148 -97 -516 -271 -924
-437 -92 -37 -164 -71 -160 -75 4 -3 42 -14 84 -24 82 -18 116 -36 105 -54 -4
-6 -34 -25 -66 -43 -33 -17 -60 -35 -60 -39 0 -10 31 -15 225 -40 599 -76
1058 -189 1101 -271 37 -72 0 -186 -89 -272 -72 -71 -217 -186 -367 -292 -146
-104 -210 -154 -210 -166 0 -5 30 -9 68 -10 81 -1 117 -10 117 -29 0 -8 -35
-43 -78 -79 -42 -36 -74 -68 -70 -72 8 -8 62 -3 313 30 349 46 709 46 813 2
100 -43 118 -93 73 -203 -47 -114 -109 -189 -530 -633 -60 -64 -107 -117 -105
-120 3 -2 42 9 87 26 160 56 170 35 45 -92 -48 -49 -83 -89 -78 -89 5 0 145
47 311 105 l303 105 258 6 c224 6 263 5 296 -9 87 -37 84 -135 -8 -322 -57
-115 -138 -231 -263 -378 -41 -48 -72 -91 -68 -94 4 -4 49 14 102 40 76 38 96
44 100 32 7 -18 -30 -84 -91 -159 -25 -31 -44 -56 -41 -56 3 0 118 55 255 121
260 126 299 137 264 79 -32 -55 -218 -254 -303 -325 -46 -38 -156 -125 -244
-193 -89 -67 -161 -128 -161 -134 0 -26 184 -71 363 -89 169 -18 560 -6 712
21 257 45 557 174 954 409 188 112 205 119 217 100 10 -16 9 2 18 -370 l6
-286 32 -36 c18 -21 35 -53 38 -74 4 -21 8 -42 9 -47 1 -4 74 79 161 185 395
479 611 711 702 755 101 50 181 16 238 -101 14 -27 43 -113 66 -190 43 -148
54 -175 69 -175 5 0 36 40 70 89 72 105 194 225 257 253 100 44 266 42 363 -4
63 -30 159 -131 265 -278 115 -159 182 -240 200 -240 21 0 26 13 119 293 128
387 239 603 342 663 82 48 202 65 310 45 127 -24 244 -92 470 -275 73 -58 135
-106 138 -106 3 0 6 30 6 68 0 37 4 117 9 177 15 172 61 269 151 315 88 45
271 49 459 10 185 -38 579 -220 926 -430 110 -66 208 -120 219 -120 16 0 18 5
12 48 -8 60 -53 195 -139 413 -85 218 -91 247 -92 469 0 184 0 185 27 231 48
82 108 120 240 153 162 41 406 39 663 -4 66 -11 162 -23 214 -27 l94 -6 -37
65 c-20 36 -36 74 -36 84 0 11 -40 82 -90 158 -101 156 -132 227 -133 306 -2
96 58 185 183 270 218 149 526 229 1123 295 530 58 693 80 718 96 16 11 18 10
-80 67 -35 20 -66 42 -68 48 -2 6 15 15 38 20 l42 9 -84 47 c-46 25 -185 99
-309 164 -574 299 -708 413 -712 602 -2 59 11 77 120 176 177 159 331 249 667
391 88 37 164 71 169 76 10 9 -52 38 -127 59 -26 7 -50 17 -53 22 -9 15 18 40
69 64 27 12 45 24 40 27 -4 3 -57 15 -118 27 -148 29 -767 182 -881 218 -168
53 -294 143 -343 245 -19 40 -22 58 -17 101 8 72 39 157 76 211 17 25 145 164
283 308 139 144 258 271 266 281 14 17 11 17 -67 11 -102 -9 -104 -2 -27 87
l55 63 -85 3 c-49 2 -172 -8 -290 -23 -168 -21 -248 -25 -449 -25 -355 0 -449
18 -523 104 -45 50 -56 95 -51 195 9 144 65 288 216 546 38 66 84 149 101 184
l33 64 -39 -7 c-71 -12 -77 -12 -81 7 -2 9 15 52 38 94 22 41 39 77 37 79 -11
11 -218 -73 -542 -221 -261 -119 -503 -220 -572 -239 -165 -45 -383 -65 -503
-47 -87 14 -133 40 -174 100 l-29 41 7 130 c3 72 11 163 16 202 10 72 10 73
-15 91 -20 15 -25 27 -25 62 0 24 -3 51 -6 60 -8 20 -20 13 -179 -115 -223
-179 -348 -255 -489 -299 -200 -62 -340 -27 -440 109 -81 109 -107 207 -131
490 -18 208 -17 205 -50 280 -13 30 -26 63 -29 73 -6 21 -18 22 -31 3z m-36
-288 c4 -13 14 -72 20 -133 29 -258 107 -469 222 -598 79 -89 124 -111 239
-115 87 -4 105 -1 190 28 52 17 124 47 160 67 61 34 103 61 289 191 41 29 78
52 82 52 17 0 27 -39 43 -163 30 -234 79 -337 184 -389 44 -22 58 -23 242 -23
167 0 210 4 298 23 178 40 353 106 726 276 179 81 226 98 226 77 0 -5 -36 -82
-79 -172 -89 -182 -123 -287 -141 -430 -22 -175 11 -292 107 -385 101 -98 214
-135 474 -155 171 -13 342 -5 459 22 47 11 103 20 125 22 64 3 57 -21 -37
-125 -205 -229 -296 -373 -328 -519 -20 -89 -9 -212 25 -283 66 -139 255 -274
540 -385 150 -59 236 -80 387 -96 130 -13 178 -25 178 -45 0 -14 -45 -42 -205
-125 -413 -214 -516 -333 -503 -575 3 -51 12 -99 22 -118 25 -49 148 -183 223
-244 76 -61 333 -227 523 -338 69 -40 128 -77 132 -84 14 -22 -23 -33 -130
-40 -367 -24 -1049 -174 -1257 -278 -86 -43 -174 -108 -231 -171 -63 -69 -89
-146 -88 -262 0 -79 1 -82 72 -225 44 -88 71 -155 70 -170 -3 -22 -9 -26 -53
-32 -78 -10 -688 -9 -705 2 -17 11 -8 25 110 165 325 387 563 844 653 1255 80
362 82 779 6 1124 -79 361 -247 712 -495 1036 -109 142 -392 427 -539 544
-587 464 -1361 791 -2070 876 -224 26 -351 31 -985 39 -442 6 -685 13 -702 20
-25 9 -28 16 -28 53 0 50 64 314 81 334 6 8 18 14 25 14 8 0 71 -58 142 -129
154 -157 199 -183 332 -189 104 -5 191 15 270 61 78 45 239 210 355 362 203
266 296 375 322 375 8 0 17 -10 22 -22z m-2271 -644 c97 -105 234 -290 230
-310 -4 -20 -78 -48 -253 -95 -125 -33 -170 -36 -179 -13 -6 17 9 101 54 291
34 142 53 193 74 193 8 0 41 -30 74 -66z m1762 -359 c406 -18 895 -105 1275
-226 408 -129 835 -335 1139 -548 546 -383 897 -887 1028 -1471 22 -100 23
-124 23 -475 0 -408 -2 -423 -70 -655 -189 -642 -639 -1214 -1305 -1657 -534
-355 -1209 -631 -1935 -792 -448 -100 -620 -115 -1197 -108 -364 4 -419 7
-573 30 -148 22 -275 35 -509 51 l-59 4 -188 -182 c-515 -503 -872 -738 -1385
-915 -188 -64 -436 -111 -591 -111 -114 0 -108 12 144 281 211 226 283 312
378 454 153 227 244 449 314 767 23 100 43 192 46 203 6 27 -51 79 -224 204
-470 340 -841 861 -970 1363 -93 360 -91 788 4 1168 205 816 849 1520 1837
2008 696 344 1609 581 2358 611 171 7 205 7 460 -4z m-3079 -89 c112 -51 268
-119 347 -151 101 -41 142 -62 140 -73 -4 -18 -126 -89 -429 -248 -239 -126
-297 -148 -291 -109 13 76 12 313 -2 473 -9 101 -13 188 -10 193 11 19 48 6
245 -85z m-1321 -705 c178 -27 406 -41 672 -41 119 0 219 -4 222 -9 3 -4 -76
-82 -177 -173 -265 -240 -465 -458 -639 -702 -454 -632 -608 -1297 -468 -2022
42 -220 92 -357 224 -621 l75 -150 228 -234 c280 -288 545 -568 597 -632 49
-61 54 -102 28 -234 -51 -247 -99 -310 -332 -436 -149 -80 -237 -117 -248
-104 -7 8 9 55 55 152 86 185 113 268 113 345 0 110 -55 179 -176 221 -64 22
-84 24 -259 23 -180 0 -198 -2 -355 -36 -207 -46 -214 -47 -218 -28 -1 9 39
65 89 125 183 219 237 309 260 437 23 130 -27 315 -99 367 -53 37 -99 42 -460
50 -429 9 -420 7 -305 102 184 151 334 331 363 436 46 162 -170 378 -440 443
-47 11 -205 38 -353 60 -319 48 -343 56 -303 89 8 6 148 79 312 161 607 302
754 444 754 726 0 90 -17 121 -130 238 -109 113 -194 184 -332 280 -92 63
-115 83 -107 91 2 1 55 8 118 14 155 15 739 116 881 152 207 53 337 135 392
247 20 40 23 62 22 147 0 126 -17 169 -144 366 -51 79 -95 152 -98 163 -6 22
8 22 238 -13z m7076 -4422 c3 -6 12 -108 20 -226 15 -238 5 -197 130 -545 29
-79 36 -110 28 -118 -9 -9 -123 40 -445 190 -239 110 -443 209 -453 220 -27
26 -20 33 137 131 73 46 226 145 341 221 114 76 214 138 222 138 7 0 16 -5 20
-11z m-1492 -805 c18 -18 22 -119 6 -129 -13 -8 -79 62 -87 93 -11 45 47 71
81 36z m-2974 -137 c84 -28 126 -47 128 -58 2 -9 -47 -71 -109 -140 -61 -68
-194 -225 -294 -349 -101 -124 -199 -243 -218 -265 -58 -66 -61 -54 -65 241
l-4 254 79 81 c43 45 127 126 187 180 90 82 114 99 140 98 17 0 87 -19 156
-42z m708 -101 c68 -7 128 -18 133 -23 20 -20 -2 -53 -89 -143 -86 -88 -127
-115 -157 -103 -31 11 -68 104 -73 180 -2 40 -2 79 1 87 8 19 23 19 185 2z
m1146 -22 c9 -3 16 -14 16 -24 0 -21 -115 -361 -137 -402 -7 -16 -20 -28 -29
-28 -22 0 -107 83 -195 192 -43 53 -108 125 -144 159 -36 35 -65 69 -65 77 0
7 10 17 23 22 24 10 506 14 531 4z"/>
</g>
</svg>
